<?xml version="1.0" encoding="UTF-8" standalone="no"?>
<!-- Created with Inkscape (http://www.inkscape.org/) -->

<svg
   xmlns:dc="http://purl.org/dc/elements/1.1/"
   xmlns:cc="http://creativecommons.org/ns#"
   xmlns:rdf="http://www.w3.org/1999/02/22-rdf-syntax-ns#"
   xmlns:svg="http://www.w3.org/2000/svg"
   xmlns="http://www.w3.org/2000/svg"
   xmlns:sodipodi="http://sodipodi.sourceforge.net/DTD/sodipodi-0.dtd"
   xmlns:inkscape="http://www.inkscape.org/namespaces/inkscape"
   width="42.333336mm"
   height="42.333321mm"
   viewBox="0 0 42.333337 42.333321"
   version="1.1"
   id="svg5"
   inkscape:version="0.92.5 (2060ec1f9f, 2020-04-08)"
   sodipodi:docname="favicon.svg">
  <metadata
     id="metadata104">
    <rdf:RDF>
      <cc:Work
         rdf:about="">
        <dc:format>image/svg+xml</dc:format>
        <dc:type
           rdf:resource="http://purl.org/dc/dcmitype/StillImage" />
        <dc:title></dc:title>
      </cc:Work>
    </rdf:RDF>
  </metadata>
  <sodipodi:namedview
     id="namedview7"
     pagecolor="#ffffff"
     bordercolor="#666666"
     borderopacity="1.0"
     inkscape:pageshadow="2"
     inkscape:pageopacity="0.0"
     inkscape:pagecheckerboard="0"
     inkscape:document-units="mm"
     showgrid="false"
     fit-margin-top="0"
     fit-margin-left="0"
     fit-margin-right="0"
     fit-margin-bottom="0"
     inkscape:zoom="1.5001964"
     inkscape:cx="326.39906"
     inkscape:cy="77.666022"
     inkscape:window-width="1550"
     inkscape:window-height="836"
     inkscape:window-x="50"
     inkscape:window-y="27"
     inkscape:window-maximized="1"
     inkscape:current-layer="layer1" />
  <defs
     id="defs2">
    <rect
       x="83.989006"
       y="217.30489"
       width="557.26038"
       height="195.97433"
       id="rect109205" />
    <rect
       x="151.9801"
       y="257.29965"
       width="521.26508"
       height="131.98273"
       id="rect3531" />
  </defs>
  <g
     inkscape:label="Camada 1"
     inkscape:groupmode="layer"
     id="layer1"
     transform="translate(-36.374941,-65.827959)">
    <text
       xml:space="preserve"
       transform="scale(0.26458333)"
       id="text109203"
       style="font-size:96px;line-height:1.25;font-family:sans-serif;white-space:pre;shape-inside:url(#rect109205)" />
    <path
       id="path7143"
       d="m 74.004575,65.827959 c -7.112,0 -16.897119,5.389974 -23.288977,14.111112 h -4.933242 c -3.768607,0 -5.568249,1.728535 -7.055557,4.703697 l -2.351858,4.703697 h 4.703714 4.703701 l 4.703697,4.703716 4.703715,4.703688 v 4.703691 4.70372 l 4.7037,-2.35185 c 2.975092,-1.48731 4.703695,-3.28696 4.703695,-7.055561 V 93.820634 C 73.318302,87.428777 78.708275,77.643657 78.708275,70.531657 v -4.703698 z m -7.055553,9.407394 c 1.298665,0 2.351858,1.053158 2.351858,2.35186 0,1.298666 -1.053156,2.351858 -2.351858,2.351858 -1.298667,0 -2.351859,-1.053157 -2.351859,-2.351858 0,-1.298668 1.053157,-2.35186 2.351859,-2.35186 z m -22.342594,19.99074 -1.176001,1.176001 c -2.35184,2.351855 -2.35184,7.055536 -2.35184,7.055536 0,0 4.444052,0.25956 7.055553,-2.35184 l 1.176,-1.175997 z"
       style="fill:#666666;fill-opacity:1;stroke-width:4.70370007"
       inkscape:connector-curvature="0" />
  </g>
</svg>
